<svg width="1921" height="95" viewBox="0 0 1921 95" fill="none" xmlns="http://www.w3.org/2000/svg">
<path d="M25.704 18.264V64.536H38.088V75H0.936V64.536H13.32V18.264H0.936V7.8H38.088V18.264H25.704ZM72.72 23.16C79.184 23.16 84.368 25.048 88.272 28.824C92.176 32.6 94.128 38.2 94.128 45.624V75H82.128V47.16C82.128 42.68 81.072 39.32 78.96 37.08C76.848 34.776 73.84 33.624 69.936 33.624C65.52 33.624 62.032 34.968 59.472 37.656C56.912 40.28 55.632 44.088 55.632 49.08V75H43.632V23.736H55.056V30.36C57.04 27.992 59.536 26.2 62.544 24.984C65.552 23.768 68.944 23.16 72.72 23.16ZM131.911 72.216C130.503 73.368 128.775 74.232 126.727 74.808C124.743 75.384 122.631 75.672 120.391 75.672C114.759 75.672 110.407 74.2 107.335 71.256C104.263 68.312 102.727 64.024 102.727 58.392V12.408H114.727V24.12H128.455V33.72H114.727V58.104C114.727 60.6 115.335 62.52 116.551 63.864C117.831 65.144 119.591 65.784 121.831 65.784C124.519 65.784 126.759 65.08 128.551 63.672L131.911 72.216ZM158.286 65.496C163.854 65.496 168.494 63.64 172.206 59.928L178.542 67.32C176.302 70.072 173.422 72.152 169.902 73.56C166.382 74.968 162.414 75.672 157.998 75.672C152.366 75.672 147.406 74.552 143.118 72.312C138.83 70.072 135.502 66.968 133.134 63C130.83 58.968 129.678 54.424 129.678 49.368C129.678 44.376 130.798 39.896 133.038 35.928C135.342 31.896 138.478 28.76 142.446 26.52C146.478 24.28 151.022 23.16 156.078 23.16C160.878 23.16 165.23 24.216 169.134 26.328C173.102 28.376 176.238 31.352 178.542 35.256C180.846 39.096 181.998 43.608 181.998 48.792L142.734 56.472C143.95 59.416 145.902 61.656 148.59 63.192C151.278 64.728 154.51 65.496 158.286 65.496ZM156.078 32.76C151.662 32.76 148.078 34.2 145.326 37.08C142.638 39.96 141.294 43.832 141.294 48.696V48.792L170.286 43.224C169.454 40.088 167.758 37.56 165.198 35.64C162.702 33.72 159.662 32.76 156.078 32.76ZM238.167 23.736V67.224C238.167 85.272 228.951 94.296 210.519 94.296C205.591 94.296 200.919 93.656 196.503 92.376C192.087 91.16 188.439 89.368 185.559 87L190.935 77.976C193.175 79.832 195.991 81.304 199.383 82.392C202.839 83.544 206.327 84.12 209.847 84.12C215.479 84.12 219.607 82.84 222.231 80.28C224.855 77.72 226.167 73.816 226.167 68.568V65.88C224.119 68.12 221.623 69.816 218.679 70.968C215.735 72.12 212.503 72.696 208.983 72.696C204.119 72.696 199.703 71.672 195.735 69.624C191.831 67.512 188.727 64.568 186.423 60.792C184.183 57.016 183.063 52.696 183.063 47.832C183.063 42.968 184.183 38.68 186.423 34.968C188.727 31.192 191.831 28.28 195.735 26.232C199.703 24.184 204.119 23.16 208.983 23.16C212.695 23.16 216.055 23.768 219.063 24.984C222.135 26.2 224.695 28.056 226.743 30.552V23.736H238.167ZM210.807 62.52C215.351 62.52 219.063 61.176 221.943 58.488C224.887 55.736 226.359 52.184 226.359 47.832C226.359 43.544 224.887 40.056 221.943 37.368C219.063 34.68 215.351 33.336 210.807 33.336C206.199 33.336 202.423 34.68 199.479 37.368C196.599 40.056 195.159 43.544 195.159 47.832C195.159 52.184 196.599 55.736 199.479 58.488C202.423 61.176 206.199 62.52 210.807 62.52ZM259.127 31.224C262.583 25.848 268.663 23.16 277.367 23.16V34.584C276.343 34.392 275.415 34.296 274.583 34.296C269.911 34.296 266.263 35.672 263.639 38.424C261.015 41.112 259.703 45.016 259.703 50.136V75H247.703V23.736H259.127V31.224ZM330.95 23.736V75H319.526V68.376C317.542 70.808 315.078 72.632 312.134 73.848C309.254 75.064 306.054 75.672 302.534 75.672C297.542 75.672 293.062 74.584 289.094 72.408C285.19 70.232 282.118 67.16 279.878 63.192C277.702 59.224 276.614 54.616 276.614 49.368C276.614 44.12 277.702 39.544 279.878 35.64C282.118 31.672 285.19 28.6 289.094 26.424C293.062 24.248 297.542 23.16 302.534 23.16C305.862 23.16 308.902 23.736 311.654 24.888C314.47 26.04 316.902 27.736 318.95 29.976V23.736H330.95ZM303.878 65.4C308.294 65.4 311.942 63.928 314.822 60.984C317.702 58.04 319.142 54.168 319.142 49.368C319.142 44.568 317.702 40.696 314.822 37.752C311.942 34.808 308.294 33.336 303.878 33.336C299.462 33.336 295.814 34.808 292.934 37.752C290.118 40.696 288.71 44.568 288.71 49.368C288.71 54.168 290.118 58.04 292.934 60.984C295.814 63.928 299.462 65.4 303.878 65.4ZM369.211 72.216C367.803 73.368 366.075 74.232 364.027 74.808C362.043 75.384 359.931 75.672 357.691 75.672C352.059 75.672 347.707 74.2 344.635 71.256C341.563 68.312 340.027 64.024 340.027 58.392V12.408H352.027V24.12H365.755V33.72H352.027V58.104C352.027 60.6 352.635 62.52 353.851 63.864C355.131 65.144 356.891 65.784 359.131 65.784C361.819 65.784 364.059 65.08 365.851 63.672L369.211 72.216ZM395.586 65.496C401.154 65.496 405.794 63.64 409.506 59.928L415.842 67.32C413.602 70.072 410.722 72.152 407.202 73.56C403.682 74.968 399.714 75.672 395.298 75.672C389.666 75.672 384.706 74.552 380.418 72.312C376.13 70.072 372.802 66.968 370.434 63C368.13 58.968 366.978 54.424 366.978 49.368C366.978 44.376 368.098 39.896 370.338 35.928C372.642 31.896 375.778 28.76 379.746 26.52C383.778 24.28 388.322 23.16 393.378 23.16C398.178 23.16 402.53 24.216 406.434 26.328C410.402 28.376 413.538 31.352 415.842 35.256C418.146 39.096 419.298 43.608 419.298 48.792L380.034 56.472C381.25 59.416 383.202 61.656 385.89 63.192C388.578 64.728 391.81 65.496 395.586 65.496ZM393.378 32.76C388.962 32.76 385.378 34.2 382.626 37.08C379.938 39.96 378.594 43.832 378.594 48.696V48.792L407.586 43.224C406.754 40.088 405.058 37.56 402.498 35.64C400.002 33.72 396.962 32.76 393.378 32.76ZM491.918 40.632H503.726V75H493.454V71.064C488.654 74.328 482.638 75.96 475.406 75.96C469.198 75.96 463.502 74.616 458.318 71.928C453.134 69.24 448.974 65.336 445.838 60.216C442.766 55.096 441.23 48.984 441.23 41.88C441.23 35.16 442.798 29.144 445.934 23.832C449.07 18.456 453.39 14.296 458.894 11.352C464.462 8.344 470.702 6.84 477.614 6.84C483.246 6.84 488.366 7.768 492.974 9.62399C497.582 11.48 501.454 14.2 504.59 17.784L496.718 25.464C491.598 20.344 485.422 17.784 478.19 17.784C473.454 17.784 469.23 18.808 465.518 20.856C461.87 22.84 458.99 25.656 456.878 29.304C454.83 32.952 453.806 37.112 453.806 41.784C453.806 46.712 454.83 50.968 456.878 54.552C458.99 58.072 461.774 60.76 465.23 62.616C468.686 64.408 472.462 65.304 476.558 65.304C479.438 65.304 482.19 64.856 484.814 63.96C487.502 63.064 489.87 61.752 491.918 60.024V40.632ZM541.595 7.8C547.419 7.8 552.475 8.76 556.763 10.68C561.115 12.6 564.443 15.352 566.747 18.936C569.051 22.52 570.203 26.776 570.203 31.704C570.203 36.568 569.051 40.824 566.747 44.472C564.443 48.056 561.115 50.808 556.763 52.728C552.475 54.648 547.419 55.608 541.595 55.608H526.427V75H513.947V7.8H541.595ZM541.019 45.048C546.459 45.048 550.587 43.896 553.403 41.592C556.219 39.288 557.627 35.992 557.627 31.704C557.627 27.416 556.219 24.12 553.403 21.816C550.587 19.512 546.459 18.36 541.019 18.36H526.427V45.048H541.019ZM624.019 24.504C617.683 20.92 611.091 18.744 604.243 17.976V75H591.763V17.976C584.851 18.744 578.227 20.92 571.891 24.504L567.571 14.904C572.051 12.216 576.851 10.2 581.971 8.856C587.155 7.512 592.467 6.84 597.907 6.84C603.347 6.84 608.659 7.512 613.843 8.856C619.027 10.2 623.859 12.216 628.339 14.904L624.019 24.504ZM623.254 43.32H649.654V53.304H623.254V43.32ZM684.959 23.16C689.951 23.16 694.399 24.248 698.303 26.424C702.271 28.6 705.375 31.672 707.615 35.64C709.855 39.608 710.975 44.184 710.975 49.368C710.975 54.552 709.855 59.16 707.615 63.192C705.375 67.16 702.271 70.232 698.303 72.408C694.399 74.584 689.951 75.672 684.959 75.672C678.047 75.672 672.575 73.368 668.543 68.76V93.624H656.543V23.736H667.967V30.456C669.951 28.024 672.383 26.2 675.263 24.984C678.207 23.768 681.439 23.16 684.959 23.16ZM683.615 65.4C688.031 65.4 691.647 63.928 694.463 60.984C697.343 58.04 698.783 54.168 698.783 49.368C698.783 44.568 697.343 40.696 694.463 37.752C691.647 34.808 688.031 33.336 683.615 33.336C680.735 33.336 678.143 34.008 675.839 35.352C673.535 36.632 671.711 38.488 670.367 40.92C669.023 43.352 668.351 46.168 668.351 49.368C668.351 52.568 669.023 55.384 670.367 57.816C671.711 60.248 673.535 62.136 675.839 63.48C678.143 64.76 680.735 65.4 683.615 65.4ZM739.156 75.672C733.972 75.672 729.3 74.552 725.14 72.312C720.98 70.072 717.716 66.968 715.348 63C713.044 58.968 711.892 54.424 711.892 49.368C711.892 44.312 713.044 39.8 715.348 35.832C717.716 31.864 720.98 28.76 725.14 26.52C729.3 24.28 733.972 23.16 739.156 23.16C744.404 23.16 749.108 24.28 753.268 26.52C757.428 28.76 760.66 31.864 762.964 35.832C765.332 39.8 766.516 44.312 766.516 49.368C766.516 54.424 765.332 58.968 762.964 63C760.66 66.968 757.428 70.072 753.268 72.312C749.108 74.552 744.404 75.672 739.156 75.672ZM739.156 65.4C743.572 65.4 747.22 63.928 750.1 60.984C752.98 58.04 754.42 54.168 754.42 49.368C754.42 44.568 752.98 40.696 750.1 37.752C747.22 34.808 743.572 33.336 739.156 33.336C734.74 33.336 731.092 34.808 728.212 37.752C725.396 40.696 723.988 44.568 723.988 49.368C723.988 54.168 725.396 58.04 728.212 60.984C731.092 63.928 734.74 65.4 739.156 65.4ZM850.567 23.736V52.056C850.567 59.544 848.615 65.368 844.711 69.528C840.807 73.624 835.207 75.672 827.911 75.672C820.039 75.672 814.375 73.016 810.919 67.704C809.127 70.392 806.823 72.408 804.007 73.752C801.255 75.032 797.895 75.672 793.927 75.672C786.631 75.672 781.031 73.624 777.127 69.528C773.287 65.368 771.367 59.544 771.367 52.056V23.736H783.367V51C783.367 55.864 784.199 59.448 785.863 61.752C787.591 64.056 790.311 65.208 794.023 65.208C797.735 65.208 800.487 64.056 802.279 61.752C804.071 59.384 804.967 55.8 804.967 51V23.736H816.967V51C816.967 55.8 817.863 59.384 819.655 61.752C821.447 64.056 824.199 65.208 827.911 65.208C831.623 65.208 834.311 64.056 835.975 61.752C837.703 59.448 838.567 55.864 838.567 51V23.736H850.567ZM884.02 65.496C889.588 65.496 894.228 63.64 897.94 59.928L904.276 67.32C902.036 70.072 899.156 72.152 895.636 73.56C892.116 74.968 888.148 75.672 883.732 75.672C878.1 75.672 873.14 74.552 868.852 72.312C864.564 70.072 861.236 66.968 858.868 63C856.564 58.968 855.412 54.424 855.412 49.368C855.412 44.376 856.532 39.896 858.772 35.928C861.076 31.896 864.212 28.76 868.18 26.52C872.212 24.28 876.756 23.16 881.812 23.16C886.612 23.16 890.964 24.216 894.868 26.328C898.836 28.376 901.972 31.352 904.276 35.256C906.58 39.096 907.732 43.608 907.732 48.792L868.468 56.472C869.684 59.416 871.636 61.656 874.324 63.192C877.012 64.728 880.244 65.496 884.02 65.496ZM881.812 32.76C877.396 32.76 873.812 34.2 871.06 37.08C868.372 39.96 867.028 43.832 867.028 48.696V48.792L896.02 43.224C895.188 40.088 893.492 37.56 890.932 35.64C888.436 33.72 885.396 32.76 881.812 32.76ZM924.445 31.224C927.901 25.848 933.981 23.16 942.685 23.16V34.584C941.661 34.392 940.733 34.296 939.901 34.296C935.229 34.296 931.581 35.672 928.957 38.424C926.333 41.112 925.021 45.016 925.021 50.136V75H913.021V23.736H924.445V31.224ZM970.54 65.496C976.108 65.496 980.748 63.64 984.46 59.928L990.796 67.32C988.556 70.072 985.676 72.152 982.156 73.56C978.636 74.968 974.668 75.672 970.252 75.672C964.62 75.672 959.66 74.552 955.372 72.312C951.084 70.072 947.756 66.968 945.388 63C943.084 58.968 941.932 54.424 941.932 49.368C941.932 44.376 943.052 39.896 945.292 35.928C947.596 31.896 950.732 28.76 954.7 26.52C958.732 24.28 963.276 23.16 968.332 23.16C973.132 23.16 977.484 24.216 981.388 26.328C985.356 28.376 988.492 31.352 990.796 35.256C993.1 39.096 994.252 43.608 994.252 48.792L954.988 56.472C956.204 59.416 958.156 61.656 960.844 63.192C963.532 64.728 966.764 65.496 970.54 65.496ZM968.332 32.76C963.916 32.76 960.332 34.2 957.58 37.08C954.892 39.96 953.548 43.832 953.548 48.696V48.792L982.54 43.224C981.708 40.088 980.012 37.56 977.452 35.64C974.956 33.72 971.916 32.76 968.332 32.76ZM1049.75 3.768V75H1038.23V68.376C1036.24 70.808 1033.78 72.632 1030.84 73.848C1027.96 75.064 1024.76 75.672 1021.24 75.672C1016.31 75.672 1011.86 74.584 1007.89 72.408C1003.99 70.232 1000.92 67.16 998.677 63.192C996.437 59.16 995.317 54.552 995.317 49.368C995.317 44.184 996.437 39.608 998.677 35.64C1000.92 31.672 1003.99 28.6 1007.89 26.424C1011.86 24.248 1016.31 23.16 1021.24 23.16C1024.63 23.16 1027.73 23.736 1030.55 24.888C1033.36 26.04 1035.76 27.768 1037.75 30.072V3.768H1049.75ZM1022.68 65.4C1025.56 65.4 1028.15 64.76 1030.45 63.48C1032.76 62.136 1034.58 60.248 1035.92 57.816C1037.27 55.384 1037.94 52.568 1037.94 49.368C1037.94 46.168 1037.27 43.352 1035.92 40.92C1034.58 38.488 1032.76 36.632 1030.45 35.352C1028.15 34.008 1025.56 33.336 1022.68 33.336C1019.8 33.336 1017.2 34.008 1014.9 35.352C1012.6 36.632 1010.77 38.488 1009.43 40.92C1008.08 43.352 1007.41 46.168 1007.41 49.368C1007.41 52.568 1008.08 55.384 1009.43 57.816C1010.77 60.248 1012.6 62.136 1014.9 63.48C1017.2 64.76 1019.8 65.4 1022.68 65.4ZM1098.79 12.792C1093.74 12.792 1091.21 15.544 1091.21 21.048V24.12H1105.32V33.72H1091.5V75H1079.5V20.856C1079.5 15.416 1081.1 11.096 1084.3 7.89599C1087.5 4.696 1092.04 3.096 1097.93 3.096C1102.47 3.096 1106.06 4.024 1108.68 5.88L1105.32 14.904C1103.4 13.496 1101.23 12.792 1098.79 12.792ZM1130.74 65.496C1136.3 65.496 1140.94 63.64 1144.66 59.928L1150.99 67.32C1148.75 70.072 1145.87 72.152 1142.35 73.56C1138.83 74.968 1134.86 75.672 1130.45 75.672C1124.82 75.672 1119.86 74.552 1115.57 72.312C1111.28 70.072 1107.95 66.968 1105.58 63C1103.28 58.968 1102.13 54.424 1102.13 49.368C1102.13 44.376 1103.25 39.896 1105.49 35.928C1107.79 31.896 1110.93 28.76 1114.9 26.52C1118.93 24.28 1123.47 23.16 1128.53 23.16C1133.33 23.16 1137.68 24.216 1141.58 26.328C1145.55 28.376 1148.69 31.352 1150.99 35.256C1153.3 39.096 1154.45 43.608 1154.45 48.792L1115.18 56.472C1116.4 59.416 1118.35 61.656 1121.04 63.192C1123.73 64.728 1126.96 65.496 1130.74 65.496ZM1128.53 32.76C1124.11 32.76 1120.53 34.2 1117.78 37.08C1115.09 39.96 1113.74 43.832 1113.74 48.696V48.792L1142.74 43.224C1141.9 40.088 1140.21 37.56 1137.65 35.64C1135.15 33.72 1132.11 32.76 1128.53 32.76ZM1209.85 23.736V75H1198.42V68.376C1196.44 70.808 1193.98 72.632 1191.03 73.848C1188.15 75.064 1184.95 75.672 1181.43 75.672C1176.44 75.672 1171.96 74.584 1167.99 72.408C1164.09 70.232 1161.02 67.16 1158.78 63.192C1156.6 59.224 1155.51 54.616 1155.51 49.368C1155.51 44.12 1156.6 39.544 1158.78 35.64C1161.02 31.672 1164.09 28.6 1167.99 26.424C1171.96 24.248 1176.44 23.16 1181.43 23.16C1184.76 23.16 1187.8 23.736 1190.55 24.888C1193.37 26.04 1195.8 27.736 1197.85 29.976V23.736H1209.85ZM1182.78 65.4C1187.19 65.4 1190.84 63.928 1193.72 60.984C1196.6 58.04 1198.04 54.168 1198.04 49.368C1198.04 44.568 1196.6 40.696 1193.72 37.752C1190.84 34.808 1187.19 33.336 1182.78 33.336C1178.36 33.336 1174.71 34.808 1171.83 37.752C1169.02 40.696 1167.61 44.568 1167.61 49.368C1167.61 54.168 1169.02 58.04 1171.83 60.984C1174.71 63.928 1178.36 65.4 1182.78 65.4ZM1248.11 72.216C1246.7 73.368 1244.97 74.232 1242.93 74.808C1240.94 75.384 1238.83 75.672 1236.59 75.672C1230.96 75.672 1226.61 74.2 1223.53 71.256C1220.46 68.312 1218.93 64.024 1218.93 58.392V12.408H1230.93V24.12H1244.65V33.72H1230.93V58.104C1230.93 60.6 1231.53 62.52 1232.75 63.864C1234.03 65.144 1235.79 65.784 1238.03 65.784C1240.72 65.784 1242.96 65.08 1244.75 63.672L1248.11 72.216ZM1301.42 23.736V75H1290V68.472C1288.08 70.776 1285.68 72.568 1282.8 73.848C1279.92 75.064 1276.81 75.672 1273.48 75.672C1266.64 75.672 1261.23 73.784 1257.26 70.008C1253.36 66.168 1251.4 60.504 1251.4 53.016V23.736H1263.4V51.384C1263.4 55.992 1264.43 59.448 1266.48 61.752C1268.59 63.992 1271.56 65.112 1275.4 65.112C1279.69 65.112 1283.08 63.8 1285.58 61.176C1288.14 58.488 1289.42 54.648 1289.42 49.656V23.736H1301.42ZM1322.32 31.224C1325.77 25.848 1331.85 23.16 1340.56 23.16V34.584C1339.53 34.392 1338.6 34.296 1337.77 34.296C1333.1 34.296 1329.45 35.672 1326.83 38.424C1324.2 41.112 1322.89 45.016 1322.89 50.136V75H1310.89V23.736H1322.32V31.224ZM1368.41 65.496C1373.98 65.496 1378.62 63.64 1382.33 59.928L1388.67 67.32C1386.43 70.072 1383.55 72.152 1380.03 73.56C1376.51 74.968 1372.54 75.672 1368.12 75.672C1362.49 75.672 1357.53 74.552 1353.24 72.312C1348.96 70.072 1345.63 66.968 1343.26 63C1340.96 58.968 1339.8 54.424 1339.8 49.368C1339.8 44.376 1340.92 39.896 1343.16 35.928C1345.47 31.896 1348.6 28.76 1352.57 26.52C1356.6 24.28 1361.15 23.16 1366.2 23.16C1371 23.16 1375.36 24.216 1379.26 26.328C1383.23 28.376 1386.36 31.352 1388.67 35.256C1390.97 39.096 1392.12 43.608 1392.12 48.792L1352.86 56.472C1354.08 59.416 1356.03 61.656 1358.72 63.192C1361.4 64.728 1364.64 65.496 1368.41 65.496ZM1366.2 32.76C1361.79 32.76 1358.2 34.2 1355.45 37.08C1352.76 39.96 1351.42 43.832 1351.42 48.696V48.792L1380.41 43.224C1379.58 40.088 1377.88 37.56 1375.32 35.64C1372.83 33.72 1369.79 32.76 1366.2 32.76ZM1413.25 75.672C1409.09 75.672 1405.03 75.128 1401.06 74.04C1397.09 72.952 1393.92 71.576 1391.56 69.912L1396.16 60.792C1398.47 62.328 1401.22 63.576 1404.42 64.536C1407.68 65.432 1410.88 65.88 1414.02 65.88C1421.19 65.88 1424.77 63.992 1424.77 60.216C1424.77 58.424 1423.84 57.176 1421.99 56.472C1420.2 55.768 1417.28 55.096 1413.25 54.456C1409.03 53.816 1405.57 53.08 1402.88 52.248C1400.26 51.416 1397.96 49.976 1395.97 47.928C1394.05 45.816 1393.09 42.904 1393.09 39.192C1393.09 34.328 1395.11 30.456 1399.14 27.576C1403.24 24.632 1408.74 23.16 1415.65 23.16C1419.17 23.16 1422.69 23.576 1426.21 24.408C1429.73 25.176 1432.61 26.232 1434.85 27.576L1430.24 36.696C1425.89 34.136 1421 32.856 1415.56 32.856C1412.04 32.856 1409.35 33.4 1407.49 34.488C1405.7 35.512 1404.8 36.888 1404.8 38.616C1404.8 40.536 1405.76 41.912 1407.68 42.744C1409.67 43.512 1412.71 44.248 1416.8 44.952C1420.9 45.592 1424.26 46.328 1426.88 47.16C1429.51 47.992 1431.75 49.4 1433.6 51.384C1435.52 53.368 1436.48 56.184 1436.48 59.832C1436.48 64.632 1434.4 68.472 1430.24 71.352C1426.08 74.232 1420.42 75.672 1413.25 75.672Z" fill="#24063C"/>
<path d="M1460.87 23.736H1472.87V75H1460.87V23.736ZM1466.92 15.288C1464.74 15.288 1462.92 14.616 1461.45 13.272C1459.97 11.864 1459.24 10.136 1459.24 8.088C1459.24 6.04 1459.97 4.344 1461.45 2.99999C1462.92 1.592 1464.74 0.887999 1466.92 0.887999C1469.09 0.887999 1470.92 1.56 1472.39 2.904C1473.86 4.184 1474.6 5.816 1474.6 7.8C1474.6 9.91199 1473.86 11.704 1472.39 13.176C1470.98 14.584 1469.16 15.288 1466.92 15.288ZM1511.47 23.16C1517.93 23.16 1523.12 25.048 1527.02 28.824C1530.92 32.6 1532.88 38.2 1532.88 45.624V75H1520.88V47.16C1520.88 42.68 1519.82 39.32 1517.71 37.08C1515.6 34.776 1512.59 33.624 1508.68 33.624C1504.27 33.624 1500.78 34.968 1498.22 37.656C1495.66 40.28 1494.38 44.088 1494.38 49.08V75H1482.38V23.736H1493.8V30.36C1495.79 27.992 1498.28 26.2 1501.29 24.984C1504.3 23.768 1507.69 23.16 1511.47 23.16ZM1626.85 23.16C1633.32 23.16 1638.44 25.048 1642.21 28.824C1645.99 32.536 1647.88 38.136 1647.88 45.624V75H1635.88V47.16C1635.88 42.68 1634.89 39.32 1632.9 37.08C1630.92 34.776 1628.07 33.624 1624.36 33.624C1620.33 33.624 1617.09 34.968 1614.66 37.656C1612.23 40.28 1611.01 44.056 1611.01 48.984V75H1599.01V47.16C1599.01 42.68 1598.02 39.32 1596.04 37.08C1594.05 34.776 1591.21 33.624 1587.49 33.624C1583.4 33.624 1580.13 34.936 1577.7 37.56C1575.33 40.184 1574.15 43.992 1574.15 48.984V75H1562.15V23.736H1573.57V30.264C1575.49 27.96 1577.89 26.2 1580.77 24.984C1583.65 23.768 1586.85 23.16 1590.37 23.16C1594.21 23.16 1597.61 23.896 1600.55 25.368C1603.56 26.776 1605.93 28.888 1607.65 31.704C1609.77 29.016 1612.49 26.936 1615.81 25.464C1619.14 23.928 1622.82 23.16 1626.85 23.16ZM1656.97 23.736H1668.97V75H1656.97V23.736ZM1663.02 15.288C1660.84 15.288 1659.02 14.616 1657.55 13.272C1656.08 11.864 1655.34 10.136 1655.34 8.088C1655.34 6.04 1656.08 4.344 1657.55 2.99999C1659.02 1.592 1660.84 0.887999 1663.02 0.887999C1665.2 0.887999 1667.02 1.56 1668.49 2.904C1669.96 4.184 1670.7 5.816 1670.7 7.8C1670.7 9.91199 1669.96 11.704 1668.49 13.176C1667.08 14.584 1665.26 15.288 1663.02 15.288ZM1707.57 23.16C1714.03 23.16 1719.22 25.048 1723.12 28.824C1727.03 32.6 1728.98 38.2 1728.98 45.624V75H1716.98V47.16C1716.98 42.68 1715.92 39.32 1713.81 37.08C1711.7 34.776 1708.69 33.624 1704.79 33.624C1700.37 33.624 1696.88 34.968 1694.32 37.656C1691.76 40.28 1690.48 44.088 1690.48 49.08V75H1678.48V23.736H1689.91V30.36C1691.89 27.992 1694.39 26.2 1697.39 24.984C1700.4 23.768 1703.79 23.16 1707.57 23.16ZM1787.59 23.736V75H1776.17V68.472C1774.25 70.776 1771.85 72.568 1768.97 73.848C1766.09 75.064 1762.98 75.672 1759.66 75.672C1752.81 75.672 1747.4 73.784 1743.43 70.008C1739.53 66.168 1737.58 60.504 1737.58 53.016V23.736H1749.58V51.384C1749.58 55.992 1750.6 59.448 1752.65 61.752C1754.76 63.992 1757.74 65.112 1761.58 65.112C1765.86 65.112 1769.26 63.8 1771.75 61.176C1774.31 58.488 1775.59 54.648 1775.59 49.656V23.736H1787.59ZM1825.86 72.216C1824.46 73.368 1822.73 74.232 1820.68 74.808C1818.7 75.384 1816.58 75.672 1814.34 75.672C1808.71 75.672 1804.36 74.2 1801.29 71.256C1798.22 68.312 1796.68 64.024 1796.68 58.392V12.408H1808.68V24.12H1822.41V33.72H1808.68V58.104C1808.68 60.6 1809.29 62.52 1810.5 63.864C1811.78 65.144 1813.54 65.784 1815.78 65.784C1818.47 65.784 1820.71 65.08 1822.5 63.672L1825.86 72.216ZM1852.24 65.496C1857.81 65.496 1862.45 63.64 1866.16 59.928L1872.5 67.32C1870.26 70.072 1867.38 72.152 1863.86 73.56C1860.34 74.968 1856.37 75.672 1851.95 75.672C1846.32 75.672 1841.36 74.552 1837.07 72.312C1832.78 70.072 1829.46 66.968 1827.09 63C1824.78 58.968 1823.63 54.424 1823.63 49.368C1823.63 44.376 1824.75 39.896 1826.99 35.928C1829.3 31.896 1832.43 28.76 1836.4 26.52C1840.43 24.28 1844.98 23.16 1850.03 23.16C1854.83 23.16 1859.18 24.216 1863.09 26.328C1867.06 28.376 1870.19 31.352 1872.5 35.256C1874.8 39.096 1875.95 43.608 1875.95 48.792L1836.69 56.472C1837.9 59.416 1839.86 61.656 1842.54 63.192C1845.23 64.728 1848.46 65.496 1852.24 65.496ZM1850.03 32.76C1845.62 32.76 1842.03 34.2 1839.28 37.08C1836.59 39.96 1835.25 43.832 1835.25 48.696V48.792L1864.24 43.224C1863.41 40.088 1861.71 37.56 1859.15 35.64C1856.66 33.72 1853.62 32.76 1850.03 32.76ZM1897.08 75.672C1892.92 75.672 1888.86 75.128 1884.89 74.04C1880.92 72.952 1877.75 71.576 1875.38 69.912L1879.99 60.792C1882.3 62.328 1885.05 63.576 1888.25 64.536C1891.51 65.432 1894.71 65.88 1897.85 65.88C1905.02 65.88 1908.6 63.992 1908.6 60.216C1908.6 58.424 1907.67 57.176 1905.82 56.472C1904.02 55.768 1901.11 55.096 1897.08 54.456C1892.86 53.816 1889.4 53.08 1886.71 52.248C1884.09 51.416 1881.78 49.976 1879.8 47.928C1877.88 45.816 1876.92 42.904 1876.92 39.192C1876.92 34.328 1878.94 30.456 1882.97 27.576C1887.06 24.632 1892.57 23.16 1899.48 23.16C1903 23.16 1906.52 23.576 1910.04 24.408C1913.56 25.176 1916.44 26.232 1918.68 27.576L1914.07 36.696C1909.72 34.136 1904.82 32.856 1899.38 32.856C1895.86 32.856 1893.18 33.4 1891.32 34.488C1889.53 35.512 1888.63 36.888 1888.63 38.616C1888.63 40.536 1889.59 41.912 1891.51 42.744C1893.5 43.512 1896.54 44.248 1900.63 44.952C1904.73 45.592 1908.09 46.328 1910.71 47.16C1913.34 47.992 1915.58 49.4 1917.43 51.384C1919.35 53.368 1920.31 56.184 1920.31 59.832C1920.31 64.632 1918.23 68.472 1914.07 71.352C1909.91 74.232 1904.25 75.672 1897.08 75.672Z" fill="#61169D"/>
</svg>
