<svg width="1623" height="95" viewBox="0 0 1623 95" fill="none" xmlns="http://www.w3.org/2000/svg">
<path d="M36.128 75.96C29.344 75.96 23.2 74.488 17.696 71.544C12.256 68.536 7.968 64.408 4.832 59.16C1.76 53.912 0.224 47.992 0.224 41.4C0.224 34.808 1.792 28.888 4.928 23.64C8.064 18.392 12.352 14.296 17.792 11.352C23.296 8.344 29.44 6.84 36.224 6.84C41.728 6.84 46.752 7.8 51.296 9.72C55.84 11.64 59.68 14.424 62.816 18.072L54.752 25.656C49.888 20.408 43.904 17.784 36.8 17.784C32.192 17.784 28.064 18.808 24.416 20.856C20.768 22.84 17.92 25.624 15.872 29.208C13.824 32.792 12.8 36.856 12.8 41.4C12.8 45.944 13.824 50.008 15.872 53.592C17.92 57.176 20.768 59.992 24.416 62.04C28.064 64.024 32.192 65.016 36.8 65.016C43.904 65.016 49.888 62.36 54.752 57.048L62.816 64.728C59.68 68.376 55.808 71.16 51.2 73.08C46.656 75 41.632 75.96 36.128 75.96ZM78.806 31.224C82.262 25.848 88.342 23.16 97.046 23.16V34.584C96.022 34.392 95.094 34.296 94.262 34.296C89.59 34.296 85.942 35.672 83.318 38.424C80.694 41.112 79.382 45.016 79.382 50.136V75H67.382V23.736H78.806V31.224ZM124.901 65.496C130.469 65.496 135.109 63.64 138.821 59.928L145.157 67.32C142.917 70.072 140.037 72.152 136.517 73.56C132.997 74.968 129.029 75.672 124.613 75.672C118.981 75.672 114.021 74.552 109.733 72.312C105.445 70.072 102.117 66.968 99.749 63C97.445 58.968 96.293 54.424 96.293 49.368C96.293 44.376 97.413 39.896 99.653 35.928C101.957 31.896 105.093 28.76 109.061 26.52C113.093 24.28 117.637 23.16 122.693 23.16C127.493 23.16 131.845 24.216 135.749 26.328C139.717 28.376 142.853 31.352 145.157 35.256C147.461 39.096 148.613 43.608 148.613 48.792L109.349 56.472C110.565 59.416 112.517 61.656 115.205 63.192C117.893 64.728 121.125 65.496 124.901 65.496ZM122.693 32.76C118.277 32.76 114.693 34.2 111.941 37.08C109.253 39.96 107.909 43.832 107.909 48.696V48.792L136.901 43.224C136.069 40.088 134.373 37.56 131.813 35.64C129.317 33.72 126.277 32.76 122.693 32.76ZM204.014 23.736V75H192.59V68.376C190.606 70.808 188.142 72.632 185.198 73.848C182.318 75.064 179.118 75.672 175.598 75.672C170.606 75.672 166.126 74.584 162.158 72.408C158.254 70.232 155.182 67.16 152.942 63.192C150.766 59.224 149.678 54.616 149.678 49.368C149.678 44.12 150.766 39.544 152.942 35.64C155.182 31.672 158.254 28.6 162.158 26.424C166.126 24.248 170.606 23.16 175.598 23.16C178.926 23.16 181.966 23.736 184.718 24.888C187.534 26.04 189.966 27.736 192.014 29.976V23.736H204.014ZM176.942 65.4C181.358 65.4 185.006 63.928 187.886 60.984C190.766 58.04 192.206 54.168 192.206 49.368C192.206 44.568 190.766 40.696 187.886 37.752C185.006 34.808 181.358 33.336 176.942 33.336C172.526 33.336 168.878 34.808 165.998 37.752C163.182 40.696 161.774 44.568 161.774 49.368C161.774 54.168 163.182 58.04 165.998 60.984C168.878 63.928 172.526 65.4 176.942 65.4ZM242.275 72.216C240.867 73.368 239.139 74.232 237.091 74.808C235.107 75.384 232.995 75.672 230.755 75.672C225.123 75.672 220.771 74.2 217.699 71.256C214.627 68.312 213.091 64.024 213.091 58.392V12.408H225.091V24.12H238.819V33.72H225.091V58.104C225.091 60.6 225.699 62.52 226.915 63.864C228.195 65.144 229.955 65.784 232.195 65.784C234.883 65.784 237.123 65.08 238.915 63.672L242.275 72.216ZM268.65 65.496C274.218 65.496 278.858 63.64 282.57 59.928L288.906 67.32C286.666 70.072 283.786 72.152 280.266 73.56C276.746 74.968 272.778 75.672 268.362 75.672C262.73 75.672 257.77 74.552 253.482 72.312C249.194 70.072 245.866 66.968 243.498 63C241.194 58.968 240.042 54.424 240.042 49.368C240.042 44.376 241.162 39.896 243.402 35.928C245.706 31.896 248.842 28.76 252.81 26.52C256.842 24.28 261.386 23.16 266.442 23.16C271.242 23.16 275.594 24.216 279.498 26.328C283.466 28.376 286.602 31.352 288.906 35.256C291.21 39.096 292.362 43.608 292.362 48.792L253.098 56.472C254.314 59.416 256.266 61.656 258.954 63.192C261.642 64.728 264.874 65.496 268.65 65.496ZM266.442 32.76C262.026 32.76 258.442 34.2 255.69 37.08C253.002 39.96 251.658 43.832 251.658 48.696V48.792L280.65 43.224C279.818 40.088 278.122 37.56 275.562 35.64C273.066 33.72 270.026 32.76 266.442 32.76ZM367.574 23.736V67.224C367.574 85.272 358.71 94.296 340.982 94.296C336.31 94.296 331.83 93.656 327.542 92.376C323.318 91.16 319.83 89.368 317.078 87L322.454 77.976C324.63 79.832 327.286 81.304 330.422 82.392C333.558 83.48 336.854 84.024 340.31 84.024C345.558 84.024 349.398 82.744 351.83 80.184C354.326 77.688 355.574 73.816 355.574 68.568V66.168C353.654 68.28 351.318 69.912 348.566 71.064C345.814 72.152 342.838 72.696 339.638 72.696C332.79 72.696 327.382 70.808 323.414 67.032C319.51 63.256 317.558 57.592 317.558 50.04V23.736H329.558V48.504C329.558 53.048 330.582 56.472 332.63 58.776C334.742 61.016 337.718 62.136 341.558 62.136C345.846 62.136 349.238 60.824 351.734 58.2C354.294 55.576 355.574 51.768 355.574 46.776V23.736H367.574ZM400.086 75.672C394.902 75.672 390.23 74.552 386.07 72.312C381.91 70.072 378.646 66.968 376.278 63C373.974 58.968 372.822 54.424 372.822 49.368C372.822 44.312 373.974 39.8 376.278 35.832C378.646 31.864 381.91 28.76 386.07 26.52C390.23 24.28 394.902 23.16 400.086 23.16C405.334 23.16 410.038 24.28 414.198 26.52C418.358 28.76 421.59 31.864 423.894 35.832C426.262 39.8 427.446 44.312 427.446 49.368C427.446 54.424 426.262 58.968 423.894 63C421.59 66.968 418.358 70.072 414.198 72.312C410.038 74.552 405.334 75.672 400.086 75.672ZM400.086 65.4C404.502 65.4 408.15 63.928 411.03 60.984C413.91 58.04 415.35 54.168 415.35 49.368C415.35 44.568 413.91 40.696 411.03 37.752C408.15 34.808 404.502 33.336 400.086 33.336C395.67 33.336 392.022 34.808 389.142 37.752C386.326 40.696 384.918 44.568 384.918 49.368C384.918 54.168 386.326 58.04 389.142 60.984C392.022 63.928 395.67 65.4 400.086 65.4ZM482.313 23.736V75H470.889V68.472C468.969 70.776 466.569 72.568 463.689 73.848C460.809 75.064 457.705 75.672 454.377 75.672C447.529 75.672 442.121 73.784 438.153 70.008C434.249 66.168 432.297 60.504 432.297 53.016V23.736H444.297V51.384C444.297 55.992 445.321 59.448 447.369 61.752C449.481 63.992 452.457 65.112 456.297 65.112C460.585 65.112 463.977 63.8 466.473 61.176C469.033 58.488 470.313 54.648 470.313 49.656V23.736H482.313ZM503.209 31.224C506.665 25.848 512.745 23.16 521.449 23.16V34.584C520.425 34.392 519.497 34.296 518.665 34.296C513.993 34.296 510.345 35.672 507.721 38.424C505.097 41.112 503.785 45.016 503.785 50.136V75H491.785V23.736H503.209V31.224ZM576.58 6.84C582.596 6.84 587.844 8.024 592.324 10.392C596.804 12.76 600.26 16.28 602.692 20.952C605.188 25.56 606.436 31.16 606.436 37.752V75H593.956V57.72H559.012V75H546.724V37.752C546.724 31.16 547.94 25.56 550.372 20.952C552.868 16.28 556.356 12.76 560.836 10.392C565.316 8.024 570.564 6.84 576.58 6.84ZM593.956 47.256V36.6C593.956 30.392 592.42 25.72 589.348 22.584C586.276 19.384 581.988 17.784 576.484 17.784C570.98 17.784 566.692 19.384 563.62 22.584C560.548 25.72 559.012 30.392 559.012 36.6V47.256H593.956ZM637.334 18.264V64.536H649.718V75H612.566V64.536H624.95V18.264H612.566V7.8H649.718V18.264H637.334ZM725.761 3.768V75H714.241V68.376C712.257 70.808 709.793 72.632 706.849 73.848C703.969 75.064 700.769 75.672 697.249 75.672C692.321 75.672 687.873 74.584 683.905 72.408C680.001 70.232 676.929 67.16 674.689 63.192C672.449 59.16 671.329 54.552 671.329 49.368C671.329 44.184 672.449 39.608 674.689 35.64C676.929 31.672 680.001 28.6 683.905 26.424C687.873 24.248 692.321 23.16 697.249 23.16C700.641 23.16 703.745 23.736 706.561 24.888C709.377 26.04 711.777 27.768 713.761 30.072V3.768H725.761ZM698.689 65.4C701.569 65.4 704.161 64.76 706.465 63.48C708.769 62.136 710.593 60.248 711.937 57.816C713.281 55.384 713.953 52.568 713.953 49.368C713.953 46.168 713.281 43.352 711.937 40.92C710.593 38.488 708.769 36.632 706.465 35.352C704.161 34.008 701.569 33.336 698.689 33.336C695.809 33.336 693.217 34.008 690.913 35.352C688.609 36.632 686.785 38.488 685.441 40.92C684.097 43.352 683.425 46.168 683.425 49.368C683.425 52.568 684.097 55.384 685.441 57.816C686.785 60.248 688.609 62.136 690.913 63.48C693.217 64.76 695.809 65.4 698.689 65.4ZM746.644 31.224C750.1 25.848 756.18 23.16 764.884 23.16V34.584C763.86 34.392 762.932 34.296 762.1 34.296C757.428 34.296 753.78 35.672 751.156 38.424C748.532 41.112 747.22 45.016 747.22 50.136V75H735.22V23.736H746.644V31.224ZM768.823 23.736H780.823V75H768.823V23.736ZM774.871 15.288C772.695 15.288 770.871 14.616 769.399 13.272C767.927 11.864 767.191 10.136 767.191 8.088C767.191 6.04 767.927 4.344 769.399 2.99999C770.871 1.592 772.695 0.887999 774.871 0.887999C777.047 0.887999 778.871 1.56 780.343 2.904C781.815 4.184 782.551 5.816 782.551 7.8C782.551 9.91199 781.815 11.704 780.343 13.176C778.935 14.584 777.111 15.288 774.871 15.288ZM838.333 23.736L816.349 75H803.965L781.981 23.736H794.461L810.397 61.752L826.813 23.736H838.333ZM862.571 65.496C868.139 65.496 872.779 63.64 876.491 59.928L882.827 67.32C880.587 70.072 877.707 72.152 874.187 73.56C870.667 74.968 866.699 75.672 862.283 75.672C856.651 75.672 851.691 74.552 847.403 72.312C843.115 70.072 839.787 66.968 837.419 63C835.115 58.968 833.963 54.424 833.963 49.368C833.963 44.376 835.083 39.896 837.323 35.928C839.627 31.896 842.763 28.76 846.731 26.52C850.763 24.28 855.307 23.16 860.363 23.16C865.163 23.16 869.515 24.216 873.419 26.328C877.387 28.376 880.523 31.352 882.827 35.256C885.131 39.096 886.283 43.608 886.283 48.792L847.019 56.472C848.235 59.416 850.187 61.656 852.875 63.192C855.563 64.728 858.795 65.496 862.571 65.496ZM860.363 32.76C855.947 32.76 852.363 34.2 849.611 37.08C846.923 39.96 845.579 43.832 845.579 48.696V48.792L874.571 43.224C873.739 40.088 872.043 37.56 869.483 35.64C866.987 33.72 863.947 32.76 860.363 32.76ZM920.66 23.16C927.124 23.16 932.308 25.048 936.212 28.824C940.116 32.6 942.068 38.2 942.068 45.624V75H930.068V47.16C930.068 42.68 929.012 39.32 926.9 37.08C924.788 34.776 921.78 33.624 917.876 33.624C913.46 33.624 909.972 34.968 907.412 37.656C904.852 40.28 903.572 44.088 903.572 49.08V75H891.572V23.736H902.996V30.36C904.98 27.992 907.476 26.2 910.484 24.984C913.492 23.768 916.884 23.16 920.66 23.16ZM1001.77 6.84C1007.79 6.84 1013.04 8.024 1017.52 10.392C1022 12.76 1025.45 16.28 1027.89 20.952C1030.38 25.56 1031.63 31.16 1031.63 37.752V75H1019.15V57.72H984.206V75H971.918V37.752C971.918 31.16 973.134 25.56 975.566 20.952C978.062 16.28 981.55 12.76 986.03 10.392C990.51 8.024 995.758 6.84 1001.77 6.84ZM1019.15 47.256V36.6C1019.15 30.392 1017.61 25.72 1014.54 22.584C1011.47 19.384 1007.18 17.784 1001.68 17.784C996.174 17.784 991.886 19.384 988.814 22.584C985.742 25.72 984.206 30.392 984.206 36.6V47.256H1019.15ZM1070.5 7.8C1076.32 7.8 1081.38 8.76 1085.66 10.68C1090.02 12.6 1093.34 15.352 1095.65 18.936C1097.95 22.52 1099.1 26.776 1099.1 31.704C1099.1 36.568 1097.95 40.824 1095.65 44.472C1093.34 48.056 1090.02 50.808 1085.66 52.728C1081.38 54.648 1076.32 55.608 1070.5 55.608H1055.33V75H1042.85V7.8H1070.5ZM1069.92 45.048C1075.36 45.048 1079.49 43.896 1082.3 41.592C1085.12 39.288 1086.53 35.992 1086.53 31.704C1086.53 27.416 1085.12 24.12 1082.3 21.816C1079.49 19.512 1075.36 18.36 1069.92 18.36H1055.33V45.048H1069.92ZM1125.01 18.264V64.536H1137.39V75H1100.24V64.536H1112.62V18.264H1100.24V7.8H1137.39V18.264H1125.01Z" fill="#24063C"/>
<path d="M1163.23 23.736H1175.23V75H1163.23V23.736ZM1169.27 15.288C1167.1 15.288 1165.27 14.616 1163.8 13.272C1162.33 11.864 1161.59 10.136 1161.59 8.088C1161.59 6.04 1162.33 4.344 1163.8 2.99999C1165.27 1.592 1167.1 0.887999 1169.27 0.887999C1171.45 0.887999 1173.27 1.56 1174.75 2.904C1176.22 4.184 1176.95 5.816 1176.95 7.8C1176.95 9.91199 1176.22 11.704 1174.75 13.176C1173.34 14.584 1171.51 15.288 1169.27 15.288ZM1213.82 23.16C1220.29 23.16 1225.47 25.048 1229.38 28.824C1233.28 32.6 1235.23 38.2 1235.23 45.624V75H1223.23V47.16C1223.23 42.68 1222.18 39.32 1220.06 37.08C1217.95 34.776 1214.94 33.624 1211.04 33.624C1206.62 33.624 1203.14 34.968 1200.58 37.656C1198.02 40.28 1196.74 44.088 1196.74 49.08V75H1184.74V23.736H1196.16V30.36C1198.14 27.992 1200.64 26.2 1203.65 24.984C1206.66 23.768 1210.05 23.16 1213.82 23.16ZM1329.21 23.16C1335.67 23.16 1340.79 25.048 1344.57 28.824C1348.35 32.536 1350.23 38.136 1350.23 45.624V75H1338.23V47.16C1338.23 42.68 1337.24 39.32 1335.26 37.08C1333.27 34.776 1330.43 33.624 1326.71 33.624C1322.68 33.624 1319.45 34.968 1317.02 37.656C1314.59 40.28 1313.37 44.056 1313.37 48.984V75H1301.37V47.16C1301.37 42.68 1300.38 39.32 1298.39 37.08C1296.41 34.776 1293.56 33.624 1289.85 33.624C1285.75 33.624 1282.49 34.936 1280.06 37.56C1277.69 40.184 1276.51 43.992 1276.51 48.984V75H1264.51V23.736H1275.93V30.264C1277.85 27.96 1280.25 26.2 1283.13 24.984C1286.01 23.768 1289.21 23.16 1292.73 23.16C1296.57 23.16 1299.96 23.896 1302.91 25.368C1305.91 26.776 1308.28 28.888 1310.01 31.704C1312.12 29.016 1314.84 26.936 1318.17 25.464C1321.5 23.928 1325.18 23.16 1329.21 23.16ZM1359.33 23.736H1371.33V75H1359.33V23.736ZM1365.38 15.288C1363.2 15.288 1361.38 14.616 1359.9 13.272C1358.43 11.864 1357.7 10.136 1357.7 8.088C1357.7 6.04 1358.43 4.344 1359.9 2.99999C1361.38 1.592 1363.2 0.887999 1365.38 0.887999C1367.55 0.887999 1369.38 1.56 1370.85 2.904C1372.32 4.184 1373.06 5.816 1373.06 7.8C1373.06 9.91199 1372.32 11.704 1370.85 13.176C1369.44 14.584 1367.62 15.288 1365.38 15.288ZM1409.93 23.16C1416.39 23.16 1421.57 25.048 1425.48 28.824C1429.38 32.6 1431.33 38.2 1431.33 45.624V75H1419.33V47.16C1419.33 42.68 1418.28 39.32 1416.17 37.08C1414.05 34.776 1411.05 33.624 1407.14 33.624C1402.73 33.624 1399.24 34.968 1396.68 37.656C1394.12 40.28 1392.84 44.088 1392.84 49.08V75H1380.84V23.736H1392.26V30.36C1394.25 27.992 1396.74 26.2 1399.75 24.984C1402.76 23.768 1406.15 23.16 1409.93 23.16ZM1489.95 23.736V75H1478.53V68.472C1476.61 70.776 1474.21 72.568 1471.33 73.848C1468.45 75.064 1465.34 75.672 1462.01 75.672C1455.17 75.672 1449.76 73.784 1445.79 70.008C1441.89 66.168 1439.93 60.504 1439.93 53.016V23.736H1451.93V51.384C1451.93 55.992 1452.96 59.448 1455.01 61.752C1457.12 63.992 1460.09 65.112 1463.93 65.112C1468.22 65.112 1471.61 63.8 1474.11 61.176C1476.67 58.488 1477.95 54.648 1477.95 49.656V23.736H1489.95ZM1528.22 72.216C1526.81 73.368 1525.08 74.232 1523.04 74.808C1521.05 75.384 1518.94 75.672 1516.7 75.672C1511.07 75.672 1506.72 74.2 1503.64 71.256C1500.57 68.312 1499.04 64.024 1499.04 58.392V12.408H1511.04V24.12H1524.76V33.72H1511.04V58.104C1511.04 60.6 1511.64 62.52 1512.86 63.864C1514.14 65.144 1515.9 65.784 1518.14 65.784C1520.83 65.784 1523.07 65.08 1524.86 63.672L1528.22 72.216ZM1554.6 65.496C1560.16 65.496 1564.8 63.64 1568.52 59.928L1574.85 67.32C1572.61 70.072 1569.73 72.152 1566.21 73.56C1562.69 74.968 1558.72 75.672 1554.31 75.672C1548.68 75.672 1543.72 74.552 1539.43 72.312C1535.14 70.072 1531.81 66.968 1529.44 63C1527.14 58.968 1525.99 54.424 1525.99 49.368C1525.99 44.376 1527.11 39.896 1529.35 35.928C1531.65 31.896 1534.79 28.76 1538.76 26.52C1542.79 24.28 1547.33 23.16 1552.39 23.16C1557.19 23.16 1561.54 24.216 1565.44 26.328C1569.41 28.376 1572.55 31.352 1574.85 35.256C1577.16 39.096 1578.31 43.608 1578.31 48.792L1539.04 56.472C1540.26 59.416 1542.21 61.656 1544.9 63.192C1547.59 64.728 1550.82 65.496 1554.6 65.496ZM1552.39 32.76C1547.97 32.76 1544.39 34.2 1541.64 37.08C1538.95 39.96 1537.6 43.832 1537.6 48.696V48.792L1566.6 43.224C1565.76 40.088 1564.07 37.56 1561.51 35.64C1559.01 33.72 1555.97 32.76 1552.39 32.76ZM1599.44 75.672C1595.28 75.672 1591.21 75.128 1587.24 74.04C1583.28 72.952 1580.11 71.576 1577.74 69.912L1582.35 60.792C1584.65 62.328 1587.4 63.576 1590.6 64.536C1593.87 65.432 1597.07 65.88 1600.2 65.88C1607.37 65.88 1610.96 63.992 1610.96 60.216C1610.96 58.424 1610.03 57.176 1608.17 56.472C1606.38 55.768 1603.47 55.096 1599.44 54.456C1595.21 53.816 1591.76 53.08 1589.07 52.248C1586.44 51.416 1584.14 49.976 1582.16 47.928C1580.24 45.816 1579.28 42.904 1579.28 39.192C1579.28 34.328 1581.29 30.456 1585.32 27.576C1589.42 24.632 1594.92 23.16 1601.84 23.16C1605.36 23.16 1608.88 23.576 1612.4 24.408C1615.92 25.176 1618.8 26.232 1621.04 27.576L1616.43 36.696C1612.08 34.136 1607.18 32.856 1601.74 32.856C1598.22 32.856 1595.53 33.4 1593.68 34.488C1591.88 35.512 1590.99 36.888 1590.99 38.616C1590.99 40.536 1591.95 41.912 1593.87 42.744C1595.85 43.512 1598.89 44.248 1602.99 44.952C1607.08 45.592 1610.44 46.328 1613.07 47.16C1615.69 47.992 1617.93 49.4 1619.79 51.384C1621.71 53.368 1622.67 56.184 1622.67 59.832C1622.67 64.632 1620.59 68.472 1616.43 71.352C1612.27 74.232 1606.6 75.672 1599.44 75.672Z" fill="#61169D"/>
</svg>
