<svg width="149" height="117" viewBox="0 0 149 117" fill="none" xmlns="http://www.w3.org/2000/svg">
<path d="M30.912 93.672C25.728 93.672 21.056 92.552 16.896 90.312C12.736 88.072 9.472 84.968 7.104 81C4.8 76.968 3.648 72.424 3.648 67.368C3.648 62.312 4.8 57.8 7.104 53.832C9.472 49.864 12.736 46.76 16.896 44.52C21.056 42.28 25.728 41.16 30.912 41.16C36.16 41.16 40.864 42.28 45.024 44.52C49.184 46.76 52.416 49.864 54.72 53.832C57.088 57.8 58.272 62.312 58.272 67.368C58.272 72.424 57.088 76.968 54.72 81C52.416 84.968 49.184 88.072 45.024 90.312C40.864 92.552 36.16 93.672 30.912 93.672ZM30.912 83.4C35.328 83.4 38.976 81.928 41.856 78.984C44.736 76.04 46.176 72.168 46.176 67.368C46.176 62.568 44.736 58.696 41.856 55.752C38.976 52.808 35.328 51.336 30.912 51.336C26.496 51.336 22.848 52.808 19.968 55.752C17.152 58.696 15.744 62.568 15.744 67.368C15.744 72.168 17.152 76.04 19.968 78.984C22.848 81.928 26.496 83.4 30.912 83.4ZM35.712 21.576H49.824L33.12 34.728H22.752L35.712 21.576ZM92.307 90.216C90.899 91.368 89.171 92.232 87.123 92.808C85.139 93.384 83.027 93.672 80.787 93.672C75.155 93.672 70.803 92.2 67.731 89.256C64.659 86.312 63.123 82.024 63.123 76.392V30.408H75.123V42.12H88.851V51.72H75.123V76.104C75.123 78.6 75.731 80.52 76.947 81.864C78.227 83.144 79.987 83.784 82.227 83.784C84.915 83.784 87.155 83.08 88.947 81.672L92.307 90.216ZM117.338 93.672C112.154 93.672 107.482 92.552 103.322 90.312C99.1623 88.072 95.8983 84.968 93.5303 81C91.2263 76.968 90.0743 72.424 90.0743 67.368C90.0743 62.312 91.2263 57.8 93.5303 53.832C95.8983 49.864 99.1623 46.76 103.322 44.52C107.482 42.28 112.154 41.16 117.338 41.16C122.586 41.16 127.29 42.28 131.45 44.52C135.61 46.76 138.842 49.864 141.146 53.832C143.514 57.8 144.698 62.312 144.698 67.368C144.698 72.424 143.514 76.968 141.146 81C138.842 84.968 135.61 88.072 131.45 90.312C127.29 92.552 122.586 93.672 117.338 93.672ZM117.338 83.4C121.754 83.4 125.402 81.928 128.282 78.984C131.162 76.04 132.602 72.168 132.602 67.368C132.602 62.568 131.162 58.696 128.282 55.752C125.402 52.808 121.754 51.336 117.338 51.336C112.922 51.336 109.274 52.808 106.394 55.752C103.578 58.696 102.17 62.568 102.17 67.368C102.17 72.168 103.578 76.04 106.394 78.984C109.274 81.928 112.922 83.4 117.338 83.4ZM98.2343 21.576H112.346L125.306 34.728H114.938L98.2343 21.576Z" fill="#CDB7DE"/>
<path d="M0 102.6H148.346V107.4H0V102.6Z" fill="#CDB7DE"/>
</svg>
